{
	"asset":{
		"generator":"Khronos glTF Blender I/O v4.3.47",
		"version":"2.0"
	},
	"scene":0,
	"scenes":[
		{
			"name":"Scene",
			"nodes":[
				0,
				1
			]
		}
	],
	"nodes":[
		{
			"mesh":0,
			"name":"Cube",
			"rotation":[
				-0.0022798541467636824,
				0.9999896883964539,
				0.003948788624256849,
				1.3265211862290016e-07
			],
			"scale":[
				0.6175272464752197,
				0.6175271272659302,
				0.617527186870575
			],
			"translation":[
				-0.0036515449173748493,
				0.8715019226074219,
				-0.040158748626708984
			]
		},
		{
			"mesh":1,
			"name":"Cylinder",
			"rotation":[
				-0.002279853681102395,
				0.9999896287918091,
				0.003948788158595562,
				1.3265209020119073e-07
			],
			"scale":[
				0.041119493544101715,
				2.51310658454895,
				0.04111948236823082
			],
			"translation":[
				-0.3520018458366394,
				0.8496299982070923,
				1.9322190284729004
			]
		}
	],
	"materials":[
		{
			"doubleSided":true,
			"name":"Material",
			"pbrMetallicRoughness":{
				"baseColorTexture":{
					"index":0
				},
				"metallicFactor":0.5772727131843567,
				"roughnessFactor":0.7454545497894287
			}
		},
		{
			"doubleSided":true,
			"name":"Material.001",
			"pbrMetallicRoughness":{
				"baseColorFactor":[
					1,
					0.6142374277114868,
					0,
					1
				],
				"metallicFactor":0.4140625,
				"roughnessFactor":0.234375
			}
		}
	],
	"meshes":[
		{
			"name":"Cube.002",
			"primitives":[
				{
					"attributes":{
						"POSITION":0,
						"NORMAL":1,
						"TEXCOORD_0":2
					},
					"indices":3,
					"material":0
				}
			]
		},
		{
			"name":"Cylinder",
			"primitives":[
				{
					"attributes":{
						"POSITION":4,
						"NORMAL":5,
						"TEXCOORD_0":6
					},
					"indices":7,
					"material":1
				}
			]
		}
	],
	"textures":[
		{
			"sampler":0,
			"source":0
		}
	],
	"images":[
		{
			"mimeType":"image/png",
			"name":"dd",
			"uri":"dd.png"
		}
	],
	"accessors":[
		{
			"bufferView":0,
			"componentType":5126,
			"count":47263,
			"max":[
				1.374914526939392,
				1.3808022737503052,
				3.1686887741088867
			],
			"min":[
				-1.374914526939392,
				-1.3861362934112549,
				-3.227426290512085
			],
			"type":"VEC3"
		},
		{
			"bufferView":1,
			"componentType":5126,
			"count":47263,
			"type":"VEC3"
		},
		{
			"bufferView":2,
			"componentType":5126,
			"count":47263,
			"type":"VEC2"
		},
		{
			"bufferView":3,
			"componentType":5123,
			"count":89724,
			"type":"SCALAR"
		},
		{
			"bufferView":4,
			"componentType":5126,
			"count":4980,
			"max":[
				4.641021251678467,
				0.31195884943008423,
				2.754056215286255
			],
			"min":[
				-21.161136627197266,
				-0.32192763686180115,
				-0.47323185205459595
			],
			"type":"VEC3"
		},
		{
			"bufferView":5,
			"componentType":5126,
			"count":4980,
			"type":"VEC3"
		},
		{
			"bufferView":6,
			"componentType":5126,
			"count":4980,
			"type":"VEC2"
		},
		{
			"bufferView":7,
			"componentType":5123,
			"count":20400,
			"type":"SCALAR"
		}
	],
	"bufferViews":[
		{
			"buffer":0,
			"byteLength":567156,
			"byteOffset":0,
			"target":34962
		},
		{
			"buffer":0,
			"byteLength":567156,
			"byteOffset":567156,
			"target":34962
		},
		{
			"buffer":0,
			"byteLength":378104,
			"byteOffset":1134312,
			"target":34962
		},
		{
			"buffer":0,
			"byteLength":179448,
			"byteOffset":1512416,
			"target":34963
		},
		{
			"buffer":0,
			"byteLength":59760,
			"byteOffset":1691864,
			"target":34962
		},
		{
			"buffer":0,
			"byteLength":59760,
			"byteOffset":1751624,
			"target":34962
		},
		{
			"buffer":0,
			"byteLength":39840,
			"byteOffset":1811384,
			"target":34962
		},
		{
			"buffer":0,
			"byteLength":40800,
			"byteOffset":1851224,
			"target":34963
		}
	],
	"samplers":[
		{
			"magFilter":9729,
			"minFilter":9987
		}
	],
	"buffers":[
		{
			"byteLength":1892024,
			"uri":"container2-2.bin"
		}
	]
}
