<svg width="68" height="43" viewBox="0 0 68 43" fill="none" xmlns="http://www.w3.org/2000/svg">
<g clip-path="url(#clip0_231_1724)">
<path d="M33.9991 42.2319C26.0148 42.2319 19.5203 32.8104 19.5203 21.2319C19.5203 9.6535 26.0166 0.231934 33.9991 0.231934C41.9817 0.231934 48.478 9.6535 48.478 21.2319C48.478 32.8104 41.9834 42.2319 33.9991 42.2319ZM33.9991 2.13785C26.5922 2.13785 20.5669 10.7049 20.5669 21.2319C20.5669 31.7589 26.5922 40.326 33.9991 40.326C41.406 40.326 47.4313 31.7589 47.4313 21.2319C47.4313 10.7049 41.406 2.13785 33.9991 2.13785Z" fill="#1C1C1C"/>
<path d="M33.9991 42.2319C14.9341 42.2319 0 33.0073 0 21.2319C0 9.45656 14.9341 0.231934 33.9991 0.231934C53.0641 0.231934 67.9983 9.45656 67.9983 21.2319C67.9983 33.0073 53.0641 42.2319 33.9991 42.2319ZM33.9991 2.13785C25.1112 2.13785 16.7623 4.20577 10.4911 7.96042C4.49019 11.5562 1.04666 16.3941 1.04666 21.2319C1.04666 26.0698 4.49019 30.9076 10.4911 34.5035C16.7623 38.2581 25.1112 40.326 33.9991 40.326C42.887 40.326 51.2359 38.2581 57.5072 34.5035C63.5098 30.9076 66.9516 26.073 66.9516 21.2319C66.9516 16.3909 63.5081 11.5562 57.5072 7.96042C51.2359 4.20577 42.887 2.13785 33.9991 2.13785Z" fill="#1C1C1C"/>
<path d="M34.5225 1.18481H33.4758V41.2789H34.5225V1.18481Z" fill="#1C1C1C"/>
<path d="M67.4767 20.2791H0.523315V22.185H67.4767V20.2791Z" fill="#1C1C1C"/>
</g>
<defs>
<clipPath id="clip0_231_1724">
<rect width="68" height="42" fill="white" transform="translate(0 0.231934)"/>
</clipPath>
</defs>
</svg>
